# xmcd
# 
# Track frame offsets:
#     150
#     29845
#     58213
#     76692
#     101629
#     126031
#     139604
#     164127
#     190205
# 
# Disc length: 2780
# 
# Revision: 5
# Processed by: cddbd v1.5.2PL0 Copyright (c) Steve Scherf et al.
# Submitted via: fre:ac v1.0.17
# 
DISCID=7e0ada09
DTITLE=SQUACKET - A LIFE WITHIN A DAY
DYEAR=2012
DGENRE=Progressive Rock
TTITLE0=A Life Within A Day
TTITLE1=Tall Ships
TTITLE2=Divided Self
TTITLE3=Aliens
TTITLE4=Sea Of Smiles
TTITLE5=The Summer Backwards
TTITLE6=Stormchaser
TTITLE7=Can't Stop The Rain
TTITLE8=Perfect Love Song
EXTD=
EXTT0=
EXTT1=
EXTT2=
EXTT3=
EXTT4=
EXTT5=
EXTT6=
EXTT7=
EXTT8=
PLAYORDER=
